<?xml version="1.0" encoding="UTF-8"?>
<svg width="162px" height="22px" viewBox="0 0 162 22" version="1.1" xmlns="http://www.w3.org/2000/svg" xmlns:xlink="http://www.w3.org/1999/xlink">
    <title>画板</title>
    <g id="画板" stroke="none" stroke-width="1" fill="none" fill-rule="evenodd">
        <g id="编组-10">
            <path d="M34.041451,2.99392166 L36.5295344,2.99392166 L36.5295344,11.1458322 L43.2311046,2.99392166 L46.3568368,2.99392166 L39.217664,11.3708846 L46.9069656,20.398 L43.8062392,20.398 L36.5295344,11.7209668 L36.5295344,20.398 L34.041451,20.398 L34.041451,2.99392166 Z M48.1697616,13.9214822 C48.1697616,11.8960077 48.8157471,10.253957 50.1077156,8.99532834 C51.3163327,7.82005287 52.8125156,7.23241513 54.5962678,7.23241513 C56.3466779,7.23241513 57.8095204,7.82005287 58.9847959,8.99532834 C60.2350887,10.2456211 60.8602353,11.8876719 60.8602353,13.9214822 C60.8602353,15.9469572 60.2309201,17.5806738 58.9722928,18.8226308 C57.7803474,20.0062421 56.3175048,20.5980467 54.5837647,20.5980467 C52.8250187,20.5980467 51.3330031,20.0062421 50.1077156,18.8226308 C48.8157471,17.5806738 48.1697616,15.9469572 48.1697616,13.9214822 Z M50.7703711,13.9214822 C50.7703711,16.0553161 51.4538652,17.505656 52.8208515,18.2725019 C53.3042988,18.5392305 53.8836007,18.6725957 54.5587589,18.6725957 C55.2339171,18.6725957 55.8048849,18.5392305 56.2716601,18.2725019 C56.7384358,17.9974375 57.1218596,17.6390195 57.4219298,17.19725 C57.9803945,16.3470509 58.2596262,15.2551286 58.2596262,13.9214822 C58.2596262,11.8043204 57.5886348,10.3539805 56.2466543,9.57046297 C55.7798786,9.29539855 55.221414,9.15786612 54.5712616,9.15786612 C53.9211096,9.15786612 53.3543104,9.29539855 52.8708634,9.57046297 C52.3957519,9.83719156 52.003994,10.1914423 51.695588,10.6332118 C51.0787772,11.5000812 50.7703711,12.5961717 50.7703711,13.9214822 Z M63.0982596,13.9214822 C63.0982596,11.8960077 63.7442435,10.253957 65.0362137,8.99532834 C66.2448295,7.82005287 67.7410154,7.23241513 69.5247654,7.23241513 C71.2751759,7.23241513 72.7380185,7.82005287 73.913294,8.99532834 C75.1635868,10.2456211 75.7887334,11.8876719 75.7887334,13.9214822 C75.7887334,15.9469572 75.1594182,17.5806738 73.9007909,18.8226308 C72.7088437,20.0062421 71.2460012,20.5980467 69.5122627,20.5980467 C67.7535185,20.5980467 66.2615012,20.0062421 65.0362137,18.8226308 C63.7442435,17.5806738 63.0982596,15.9469572 63.0982596,13.9214822 Z M65.6988692,13.9214822 C65.6988692,16.0553161 66.3823615,17.505656 67.7493495,18.2725019 C68.2327951,18.5392305 68.8120988,18.6725957 69.487257,18.6725957 C70.1624151,18.6725957 70.7333812,18.5392305 71.2001582,18.2725019 C71.6669352,17.9974375 72.0503572,17.6390195 72.3504279,17.19725 C72.9088908,16.3470509 73.1881238,15.2551286 73.1881238,13.9214822 C73.1881238,11.8043204 72.5171346,10.3539805 71.1751524,9.57046297 C70.708375,9.29539855 70.149912,9.15786612 69.4997596,9.15786612 C68.8496072,9.15786612 68.2828067,9.29539855 67.7993615,9.57046297 C67.32425,9.83719156 66.9324904,10.1914423 66.624086,10.6332118 C66.0072735,11.5000812 65.6988692,12.5961717 65.6988692,13.9214822 Z M79.4020803,1.79364084 L81.9026659,1.79364084 L81.9026659,15.5093546 C81.9026659,17.1597411 82.2777539,18.1308027 83.0279298,18.422537 C83.2779884,18.5225606 83.5447188,18.5725721 83.8281173,18.5725721 C84.1115158,18.5725721 84.365743,18.5392305 84.5907959,18.472549 L84.5907959,20.398 L84.1281875,20.4480116 C83.9781524,20.4646819 83.8322859,20.4730178 83.6905849,20.4730178 C82.0902099,20.4730178 80.9357716,19.9478947 80.2272735,18.8976485 C79.6771447,18.0724553 79.4020803,16.9471914 79.4020803,15.5218572 L79.4020803,1.79364084 Z M99.2317265,20.2979765 C98.4065332,20.4480116 97.2937724,20.5230293 95.8934445,20.5230293 C94.5014537,20.5230293 93.2428233,20.3313181 92.1175594,19.9478947 C91.0006335,19.5644709 90.0379078,18.9976717 89.2293827,18.2474961 C87.4956443,16.6387853 86.6287735,14.3965938 86.6287735,11.5209197 C86.6287735,9.64548031 87.0747103,8.02009953 87.9665868,6.6447774 C89.1752056,4.78600791 91.0298048,3.60239747 93.5303904,3.0939452 C94.2972346,2.9439101 95.2099487,2.86889277 96.2685324,2.86889277 C97.3354468,2.86889277 98.1898179,2.92723929 98.8316327,3.04393365 L98.8316327,5.43199304 C98.2481605,5.24861719 97.3437844,5.15692862 96.1184969,5.15692862 C94.9015474,5.15692862 93.8679699,5.30696372 93.0177704,5.60703436 C92.1675714,5.90710456 91.4632419,6.33637222 90.9047755,6.89483605 C89.7878491,7.98675878 89.2293827,9.52878682 89.2293827,11.5209197 C89.2293827,13.5297243 89.7795116,15.1217635 90.8797697,16.297039 C92.0717134,17.5640021 93.7846146,18.1974842 96.0184738,18.1974842 C97.3271157,18.1974842 98.3981956,18.097461 99.2317265,17.897414 L99.2317265,20.2979765 Z M108.396374,20.5980467 C103.678604,20.5980467 101.319716,18.2933409 101.319716,13.6839267 C101.319716,11.7001279 101.974034,10.112256 103.282676,8.92031057 C104.457951,7.83672368 105.79993,7.2949298 107.308619,7.2949298 C108.950668,7.2949298 110.234305,7.84505865 111.159522,8.94531635 C112.018058,9.97055672 112.447323,11.341712 112.447323,13.0587801 L112.447323,14.0340089 L103.920325,14.0340089 C103.920325,16.3928952 104.883051,17.8348993 106.808502,18.3600224 C107.266945,18.4850517 107.971274,18.5475664 108.921497,18.5475664 C109.880057,18.5475664 110.817777,18.4183702 111.734656,18.1599757 L111.734656,20.2729707 C110.817777,20.4896877 109.705016,20.5980467 108.396374,20.5980467 Z M109.946737,12.1960783 C109.946737,11.3958908 109.72585,10.7207322 109.284082,10.1706034 C108.767297,9.53712136 108.05463,9.22038078 107.146081,9.22038078 C106.187521,9.22038078 105.408174,9.52461825 104.808033,10.1330949 C104.257904,10.6998937 103.98284,11.3875546 103.98284,12.1960783 L109.946737,12.1960783 Z M121.01183,9.44543365 C119.769875,9.44543365 118.665445,9.86636591 117.698554,10.7082296 L117.698554,20.398 L115.197968,20.398 L115.197968,7.49497645 L117.51101,7.49497645 L117.686051,8.8953048 C119.044705,7.82838784 120.449198,7.2949298 121.899538,7.2949298 C123.433233,7.2949298 124.558496,7.75337007 125.275329,8.67025193 C126.025505,9.63714447 126.400593,11.1958438 126.400593,13.3463476 L126.400593,20.398 L123.900007,20.398 L123.900007,13.3463476 C123.900007,11.2791974 123.341541,10.0455741 122.224614,9.64548031 C121.866195,9.51211514 121.461936,9.44543365 121.01183,9.44543365 Z M134.790059,18.422537 C135.065123,18.5225606 135.481885,18.5725721 136.040351,18.5725721 C136.598818,18.5725721 137.065592,18.5058906 137.44068,18.3725255 L137.44068,20.3729942 C137.265638,20.4146699 137.011415,20.4396757 136.678001,20.4480116 L135.890316,20.4730178 C135.715275,20.4730178 135.581909,20.4730178 135.490223,20.4730178 C133.88151,20.4730178 132.693732,19.9478947 131.926888,18.8976485 C131.310079,18.0474491 131.001671,16.9221856 131.001671,15.5218572 L131.001671,9.40792476 L129.151237,9.40792476 L129.151237,8.23264929 L131.001671,7.49497645 L131.601811,4.29422645 L133.502257,4.29422645 L133.502257,7.49497645 L137.503194,7.49497645 L137.503194,9.40792476 L133.502257,9.40792476 L133.502257,15.5093546 C133.502257,17.1430712 133.931522,18.114131 134.790059,18.422537 Z M146.855386,20.5980467 C142.137616,20.5980467 139.778728,18.2933409 139.778728,13.6839267 C139.778728,11.7001279 140.433045,10.112256 141.741687,8.92031057 C142.916963,7.83672368 144.258948,7.2949298 145.767631,7.2949298 C147.409687,7.2949298 148.693316,7.84505865 149.618533,8.94531635 C150.477063,9.97055672 150.906335,11.341712 150.906335,13.0587801 L150.906335,14.0340089 L142.379337,14.0340089 C142.379337,16.3928952 143.342062,17.8348993 145.267513,18.3600224 C145.72595,18.4850517 146.430286,18.5475664 147.380509,18.5475664 C148.339062,18.5475664 149.276782,18.4183702 150.193668,18.1599757 L150.193668,20.2729707 C149.276782,20.4896877 148.164021,20.5980467 146.855386,20.5980467 Z M148.405749,12.1960783 C148.405749,11.3958908 148.184868,10.7207322 147.743094,10.1706034 C147.226302,9.53712136 146.513635,9.22038078 145.605093,9.22038078 C144.646539,9.22038078 143.867186,9.52461825 143.267045,10.1330949 C142.716916,10.6998937 142.441851,11.3875546 142.441851,12.1960783 L148.405749,12.1960783 Z M161.858901,9.78301274 C161.400465,9.64964757 160.850336,9.58296564 160.208515,9.58296564 C159.575037,9.58296564 159.054073,9.64964757 158.645649,9.78301274 C158.237224,9.90804206 157.878797,10.0622444 157.570397,10.2456211 C157.003593,10.579033 156.590996,10.9541209 156.332606,11.3708846 L156.332606,20.398 L153.83202,20.398 L153.83202,7.49497645 L156.232583,7.49497645 L156.332606,9.28289544 C156.957753,8.49937875 157.870467,7.91174101 159.070748,7.51998223 C159.504179,7.36994713 160.000137,7.2949298 160.558597,7.2949298 C161.117056,7.2949298 161.5505,7.33660638 161.858901,7.41995912 L161.858901,9.78301274 Z" id="Fill-5" fill="#000B1C"></path>
            <g id="编组-27">
                <path d="M4.94760043,1.74439747 C1.96961439,3.67874067 3.8855319e-13,7.03435837 3.8855319e-13,10.8499978 C3.8855319e-13,14.6656369 1.96961439,18.0212533 4.94760043,19.9555947 L4.94760043,1.74439747 Z" id="Fill-8" fill="#FFD43D"></path>
                <path d="M17.8436071,2.55439076 L11.0235974,9.3744 L8.4195974,9.3744 L8.4195974,0.273254646 C9.20094582,0.094449684 10.0144415,-3.16084936e-13 10.8499974,-3.16084936e-13 C13.5146897,-3.16084936e-13 15.9550287,0.960595636 17.8436071,2.55439076 Z" id="Fill-10" fill="#FF4D23"></path>
                <path d="M19.8795905,16.8677997 C21.0295633,15.1457177 21.6999952,13.0761501 21.6999952,10.8499978 C21.6999952,8.77845247 21.1194573,6.84250172 20.1121876,5.19596084 L14.1599652,11.1481762 L19.8795905,16.8677997 Z" id="Fill-11" fill="#625BFF"></path>
                <path d="M8.4195974,21.4267436 C9.20094582,21.605546 10.0144415,21.6999952 10.8499974,21.6999952 C13.3623448,21.6999952 15.6752502,20.8460933 17.5143356,19.4126907 L10.9480402,12.8463961 L8.4195974,12.8463961 L8.4195974,21.4267436 Z" id="Fill-12" fill="#5BF0FF"></path>
            </g>
        </g>
    </g>
</svg>